<svg xmlns="http://www.w3.org/2000/svg" viewBox="0 0 334.6 81.24"><defs><style>.cls-1{isolation:isolate;}.cls-2{fill:#6f6f6e;}.cls-3{fill:#575756;}.cls-4{fill:#05e6a5;}.cls-5{fill:#e1f528;mix-blend-mode:multiply;}</style></defs><title>conventic_rgb_logoclaim</title><g class="cls-1"><g id="Ebene_1" data-name="Ebene 1"><path class="cls-2" d="M124.67,77.36V63.79h3.76a5.33,5.33,0,0,1,4,1.68A5.89,5.89,0,0,1,134,69.75v1.66a5.88,5.88,0,0,1-1.63,4.28,5.34,5.34,0,0,1-4,1.67Zm.5-13.07V76.86h3.25A4.83,4.83,0,0,0,132,75.31a5.4,5.4,0,0,0,1.49-3.91V69.72A5.37,5.37,0,0,0,132,65.84a4.83,4.83,0,0,0-3.61-1.55Z"/><path class="cls-2" d="M141,77.56a3.88,3.88,0,0,1-3-1.39,5,5,0,0,1-1.25-3.46v-.6a5.35,5.35,0,0,1,1.21-3.59,3.78,3.78,0,0,1,3-1.42,3.69,3.69,0,0,1,2.78,1.12,4.15,4.15,0,0,1,1.08,3V72h-7.56v.72a4.61,4.61,0,0,0,1.07,3.09A3.35,3.35,0,0,0,141,77.06a5.05,5.05,0,0,0,1.89-.31,3.41,3.41,0,0,0,1.3-.92l.27.39a3.84,3.84,0,0,1-1.45,1A5.42,5.42,0,0,1,141,77.56Zm0-10a3.24,3.24,0,0,0-2.5,1.1,4.46,4.46,0,0,0-1.13,2.74l0,.06h7v-.31a3.65,3.65,0,0,0-.93-2.56A3.13,3.13,0,0,0,140.93,67.59Z"/><path class="cls-2" d="M150.08,75.23l.48,1.36h.06l.48-1.36,3.1-8h.54l-3.93,10.08h-.48l-3.92-10.09H147Z"/><path class="cls-2" d="M160.68,77.56a3.88,3.88,0,0,1-3-1.39,5,5,0,0,1-1.25-3.46v-.6a5.35,5.35,0,0,1,1.21-3.59,3.78,3.78,0,0,1,3-1.42,3.69,3.69,0,0,1,2.78,1.12,4.15,4.15,0,0,1,1.08,3V72h-7.56v.72A4.61,4.61,0,0,0,158,75.79a3.35,3.35,0,0,0,2.66,1.26,5.05,5.05,0,0,0,1.89-.31,3.41,3.41,0,0,0,1.3-.92l.27.39a3.84,3.84,0,0,1-1.45,1A5.42,5.42,0,0,1,160.68,77.56Zm0-10a3.24,3.24,0,0,0-2.5,1.1A4.46,4.46,0,0,0,157,71.43l0,.06h7v-.31a3.65,3.65,0,0,0-.93-2.56A3.13,3.13,0,0,0,160.65,67.59Z"/><path class="cls-2" d="M168.09,77.36h-.5V62.82h.5Z"/><path class="cls-2" d="M171.22,72.12a5.32,5.32,0,0,1,1.23-3.63,4.31,4.31,0,0,1,6.38,0,5.32,5.32,0,0,1,1.23,3.63v.39a5.34,5.34,0,0,1-1.23,3.64,4.31,4.31,0,0,1-6.37,0,5.32,5.32,0,0,1-1.23-3.64Zm.5.39a5,5,0,0,0,1.06,3.22,3.73,3.73,0,0,0,5.7,0,5,5,0,0,0,1.06-3.22v-.39a5,5,0,0,0-1.07-3.19,3.69,3.69,0,0,0-5.69,0,5,5,0,0,0-1.06,3.19Z"/><path class="cls-2" d="M190.79,72.51a6.08,6.08,0,0,1-1,3.69A3.26,3.26,0,0,1,187,77.56a4.28,4.28,0,0,1-2.07-.48,3.54,3.54,0,0,1-1.38-1.29v5.45h-.5v-14h.39l.1,1.81a3.79,3.79,0,0,1,1.37-1.46,3.87,3.87,0,0,1,2.06-.53,3.25,3.25,0,0,1,2.79,1.41,6.42,6.42,0,0,1,1,3.81Zm-.51-.2a6.2,6.2,0,0,0-.84-3.41A2.73,2.73,0,0,0,187,67.59a3.26,3.26,0,0,0-2.27.74,4.09,4.09,0,0,0-1.16,1.81v4.72a3.26,3.26,0,0,0,1.25,1.6,3.82,3.82,0,0,0,2.2.6,2.75,2.75,0,0,0,2.43-1.23,5.83,5.83,0,0,0,.83-3.32Z"/><path class="cls-2" d="M194.48,67.28l.07,2.08a3.78,3.78,0,0,1,1.31-1.67,3.57,3.57,0,0,1,2.09-.6,3.24,3.24,0,0,1,2.12.67,3.54,3.54,0,0,1,1.12,2.06,4,4,0,0,1,1.31-2,3.53,3.53,0,0,1,2.27-.72,3,3,0,0,1,2.54,1.09,5.5,5.5,0,0,1,.87,3.43v5.75h-.51V71.58a4.75,4.75,0,0,0-.78-3.1,2.62,2.62,0,0,0-2.09-.9,3,3,0,0,0-2.42,1,4.72,4.72,0,0,0-1,2.49c0,.12,0,.23,0,.32s0,.18,0,.27v5.73h-.51V71.59a4.75,4.75,0,0,0-.78-3.1,2.64,2.64,0,0,0-2.1-.9,3,3,0,0,0-2.38.92,4.54,4.54,0,0,0-1,2.38v6.47H194V67.28Z"/><path class="cls-2" d="M215.31,77.56a3.88,3.88,0,0,1-3-1.39,5,5,0,0,1-1.25-3.46v-.6a5.35,5.35,0,0,1,1.21-3.59,3.78,3.78,0,0,1,3-1.42,3.69,3.69,0,0,1,2.78,1.12,4.15,4.15,0,0,1,1.08,3V72h-7.56v.72a4.61,4.61,0,0,0,1.07,3.09,3.35,3.35,0,0,0,2.66,1.26,5.05,5.05,0,0,0,1.89-.31,3.41,3.41,0,0,0,1.3-.92l.27.39a3.84,3.84,0,0,1-1.45,1A5.42,5.42,0,0,1,215.31,77.56Zm0-10a3.24,3.24,0,0,0-2.5,1.1,4.46,4.46,0,0,0-1.13,2.74l0,.06h7v-.31a3.65,3.65,0,0,0-.93-2.56A3.13,3.13,0,0,0,215.28,67.59Z"/><path class="cls-2" d="M222.53,67.28l.07,2.08a3.7,3.7,0,0,1,1.33-1.67,3.78,3.78,0,0,1,2.16-.59,3,3,0,0,1,2.48,1,5.3,5.3,0,0,1,.82,3.3v5.94h-.5v-6a4.51,4.51,0,0,0-.75-3,2.57,2.57,0,0,0-2-.86,3.05,3.05,0,0,0-2.46,1,4.72,4.72,0,0,0-1,2.49v6.3h-.5V67.28Z"/><path class="cls-2" d="M234.21,64.55v2.72h2.48v.51h-2.48v7a2.88,2.88,0,0,0,.42,1.77,1.35,1.35,0,0,0,1.11.53l.45,0,.54-.07.09.46a2.49,2.49,0,0,1-.48.1,5.19,5.19,0,0,1-.57,0,1.85,1.85,0,0,1-1.54-.66,3.44,3.44,0,0,1-.53-2.14v-7h-1.86v-.51h1.86V64.55Z"/><path class="cls-2" d="M252.43,70.54h-6.81v6.32h7.76v.5h-8.26V63.79h8.26v.5h-7.76V70h6.81Z"/><path class="cls-2" d="M259.3,71.75l3.22-4.48h.63l-3.54,4.91,3.73,5.17h-.62l-3.42-4.74-3.41,4.74h-.62L259,72.19l-3.54-4.91h.63Z"/><path class="cls-2" d="M269.3,77.06a3.78,3.78,0,0,0,2.26-.7,2.41,2.41,0,0,0,1-2.1H273l0,.06a2.75,2.75,0,0,1-1.09,2.36,4.09,4.09,0,0,1-2.6.88,3.64,3.64,0,0,1-3-1.39,5.73,5.73,0,0,1-1.1-3.65v-.39a5.73,5.73,0,0,1,1.09-3.65,3.62,3.62,0,0,1,3-1.39,4,4,0,0,1,2.65.92,3.1,3.1,0,0,1,1,2.59l0,.06h-.43a2.78,2.78,0,0,0-1-2.27,3.49,3.49,0,0,0-2.3-.79,3.1,3.1,0,0,0-2.69,1.27,5.45,5.45,0,0,0-.91,3.26v.39a5.46,5.46,0,0,0,.91,3.28A3.12,3.12,0,0,0,269.3,77.06Z"/><path class="cls-2" d="M279.62,77.56a3.88,3.88,0,0,1-3-1.39,5,5,0,0,1-1.25-3.46v-.6a5.35,5.35,0,0,1,1.21-3.59,3.78,3.78,0,0,1,3-1.42,3.69,3.69,0,0,1,2.78,1.12,4.15,4.15,0,0,1,1.08,3V72h-7.56v.72A4.61,4.61,0,0,0,277,75.79a3.35,3.35,0,0,0,2.66,1.26,5.06,5.06,0,0,0,1.89-.31,3.41,3.41,0,0,0,1.3-.92l.27.39a3.84,3.84,0,0,1-1.45,1A5.42,5.42,0,0,1,279.62,77.56Zm0-10a3.24,3.24,0,0,0-2.5,1.1A4.46,4.46,0,0,0,276,71.43l0,.06h7v-.31a3.65,3.65,0,0,0-.93-2.56A3.13,3.13,0,0,0,279.59,67.59Z"/><path class="cls-2" d="M287,77.36h-.5V62.82h.5Z"/><path class="cls-2" d="M291.58,77.36h-.5V62.82h.5Z"/><path class="cls-2" d="M298.95,77.56a3.88,3.88,0,0,1-3-1.39,5,5,0,0,1-1.25-3.46v-.6a5.35,5.35,0,0,1,1.21-3.59,3.78,3.78,0,0,1,3-1.42,3.69,3.69,0,0,1,2.78,1.12,4.15,4.15,0,0,1,1.08,3V72h-7.56v.72a4.61,4.61,0,0,0,1.07,3.09,3.35,3.35,0,0,0,2.66,1.26,5.06,5.06,0,0,0,1.89-.31,3.42,3.42,0,0,0,1.3-.92l.27.39a3.84,3.84,0,0,1-1.45,1A5.42,5.42,0,0,1,298.95,77.56Zm0-10a3.24,3.24,0,0,0-2.5,1.1,4.46,4.46,0,0,0-1.13,2.74l0,.06h7v-.31a3.65,3.65,0,0,0-.93-2.56A3.13,3.13,0,0,0,298.92,67.59Z"/><path class="cls-2" d="M306.17,67.28l.07,2.08a3.7,3.7,0,0,1,1.33-1.67,3.78,3.78,0,0,1,2.16-.59,3,3,0,0,1,2.48,1,5.3,5.3,0,0,1,.83,3.3v5.94h-.5v-6a4.51,4.51,0,0,0-.75-3,2.57,2.57,0,0,0-2-.86,3.05,3.05,0,0,0-2.46,1,4.72,4.72,0,0,0-1,2.49v6.3h-.5V67.28Z"/><path class="cls-2" d="M320.22,77.06a3.78,3.78,0,0,0,2.26-.7,2.41,2.41,0,0,0,1-2.1h.43l0,.06a2.76,2.76,0,0,1-1.09,2.36,4.09,4.09,0,0,1-2.6.88,3.64,3.64,0,0,1-3-1.39,5.73,5.73,0,0,1-1.1-3.65v-.39a5.73,5.73,0,0,1,1.09-3.65,3.62,3.62,0,0,1,3-1.39,4,4,0,0,1,2.65.92,3.1,3.1,0,0,1,1,2.59l0,.06h-.43a2.78,2.78,0,0,0-1-2.27,3.49,3.49,0,0,0-2.3-.79,3.1,3.1,0,0,0-2.69,1.27,5.45,5.45,0,0,0-.91,3.26v.39a5.46,5.46,0,0,0,.91,3.28A3.12,3.12,0,0,0,320.22,77.06Z"/><path class="cls-2" d="M330.54,77.56a3.88,3.88,0,0,1-3-1.39,5,5,0,0,1-1.25-3.46v-.6a5.35,5.35,0,0,1,1.21-3.59,3.78,3.78,0,0,1,3-1.42,3.69,3.69,0,0,1,2.78,1.12,4.15,4.15,0,0,1,1.08,3V72h-7.56v.72a4.61,4.61,0,0,0,1.07,3.09,3.35,3.35,0,0,0,2.66,1.26,5.05,5.05,0,0,0,1.89-.31,3.42,3.42,0,0,0,1.3-.92l.27.39a3.84,3.84,0,0,1-1.45,1A5.42,5.42,0,0,1,330.54,77.56Zm0-10a3.24,3.24,0,0,0-2.5,1.1,4.46,4.46,0,0,0-1.13,2.74l0,.06h7v-.31a3.65,3.65,0,0,0-.93-2.56A3.13,3.13,0,0,0,330.51,67.59Z"/><path class="cls-3" d="M31.55,31.65l.06.18q.12,6.88-4.16,10.51T16.18,46A14.41,14.41,0,0,1,4.42,40.57Q0,35.15,0,26.34V19.65Q0,10.87,4.42,5.44A14.39,14.39,0,0,1,16.18,0q7,0,11.28,3.65T31.61,14.1l-.06.18H30.14q0-6-3.76-9.33T16.18,1.66A12.87,12.87,0,0,0,5.65,6.61q-4,4.94-4,13v6.75q0,8.14,4,13.06a12.88,12.88,0,0,0,10.53,4.93q6.45,0,10.21-3.16t3.76-9.52Z"/><path class="cls-3" d="M76.87,26.34q0,9.06-4.48,14.35T60,46q-7.89,0-12.38-5.29t-4.5-14.35V19.65q0-9,4.47-14.33T60,0q7.86,0,12.37,5.31t4.51,14.33Zm-1.66-6.75q0-8.22-4-13.07T60,1.66q-7.27,0-11.2,4.85T44.85,19.59v6.75q0,8.29,3.94,13.14T60,44.33q7.31,0,11.23-4.83t3.93-13.15Z"/><path class="cls-3" d="M115.74,46h-1.66L83.35,0h1.89L113.9,42.82l.18-.06V0h1.66Z"/><path class="cls-2" d="M252.92,46H251.1L222.43,3.07l-.18.06V46h-1.69V0h1.69Z"/><path class="cls-2" d="M281.15,1.66H263.43V46h-1.66V0h19.37Z"/><path class="cls-2" d="M290.82,46h-1.66V0h1.66Z"/><path class="cls-2" d="M334.53,31.65l.06.18q.12,6.88-4.16,10.51T319.16,46a14.41,14.41,0,0,1-11.76-5.42Q303,35.15,303,26.34V19.65q0-8.78,4.42-14.21A14.39,14.39,0,0,1,319.16,0q7,0,11.28,3.65t4.16,10.44l-.06.18h-1.41q0-6-3.76-9.33T319.16,1.66a12.87,12.87,0,0,0-10.53,4.94q-4,4.94-4,13v6.75q0,8.14,4,13.06a12.88,12.88,0,0,0,10.53,4.93q6.45,0,10.21-3.16t3.76-9.52Z"/><rect class="cls-2" x="183.79" y="21.36" width="20.04" height="1.66"/><rect class="cls-2" x="183.79" y="0.3" width="27.13" height="1.66"/><rect class="cls-2" x="183.79" y="44.33" width="27.13" height="1.66"/><polygon class="cls-4" points="156.59 45.99 143.2 45.99 162.19 0.01 175.56 0.01 156.59 45.99"/><polygon class="cls-5" points="143.2 45.99 156.59 45.99 137.61 0.01 124.23 0.01 143.2 45.99"/></g></g></svg>